<svg id="レイヤー_1" data-name="レイヤー 1" xmlns="http://www.w3.org/2000/svg" viewBox="0 0 1920 1080"><defs><style>.cls-1,.cls-2,.cls-3{fill:#333;}.cls-2,.cls-3{stroke:#333;stroke-miterlimit:10;}.cls-2{stroke-width:0.5px;}.cls-3{stroke-width:0.25px;}</style></defs><path class="cls-1" d="M441.68,607.91c12,15.08,42.94,26.3,58.41,26.3,34.81,0,40.62-15.86,40.62-32.11v-7.34c0-15.87-17-19.73-17-19.73L478,564.58c-47.19-10.83-47.19-45.64-47.19-45.64v-8.51c0-47.58,38.3-50.29,50.29-50.29,41.12,0,69.72,11.59,80.24,16.64a4.93,4.93,0,0,1,2.29,6.67l-9.43,18.85c-27.46-13.92-54.92-15.47-63.82-15.47-23.59,0-28.62,9.67-28.62,24v8.51c0,13.15,17,16.63,17,16.63l45.64,10.44c46.81,10.83,47.19,48.36,47.19,48v7.73c0,33.65-18.18,59.18-71.56,59.18-22.63,0-52.38-11.38-68.42-28.36a4.17,4.17,0,0,1-.6-4.82Z"/><path class="cls-1" d="M1158.27,570c5,0,10.49-.07,16.2,5.06,6.78,6.08,1.27,13.78-.27,15.77-2.21,2.87-39.1,36.63-39.1,36.63a1.1,1.1,0,0,1-1.72-1.31c2.77-5.47,3.3-8.84,3.92-14a88.49,88.49,0,0,0,.6-14.38c-.07-2-.06-24.05-.06-24.63,0-.1,0-.82,0-1.37,0-1,.5-1.74,1.86-1.74Z"/><path class="cls-1" d="M1131.59,609.15s0,49.13-73.49,49.13-73.5-41.39-73.5-49.13V505.87c0-36.22,3.1-49.12,73.5-49.12,73.49,0,73.49,12.9,73.49,49.12Zm-30.95-95.93c0-26.07-2.7-29.4-42.54-29.4s-42.55,4.5-42.55,29.4v90.13c0,8.12,3.48,27.85,42.55,27.85s42.54-19.73,42.54-27.85Z"/><path class="cls-1" d="M786.56,465,855.7,575.41l68.82-109.89a7.49,7.49,0,0,1,8.72-3.13l11.63,3.88a7.68,7.68,0,0,1,5.2,8.25L947,499.21V657.8H916V537.5L855.7,624.15,795.36,537.5V657.8h-31V499.21l-3.18-25.53a6.66,6.66,0,0,1,4.5-7.15l13-4.33A6.7,6.7,0,0,1,786.56,465Z"/><path class="cls-1" d="M602.8,464H730.44v27.85h-92.1a4.6,4.6,0,0,0-4.6,4.6v41.82H701v27.08H638a4.22,4.22,0,0,0-4.23,4.22v61.53h96.7V657.8H602.8Z"/><path class="cls-1" d="M1303.55,646.94l61.79-173.63a7.55,7.55,0,0,1,7.12-5h25.65a7.82,7.82,0,0,1,7.39,5.25l60.64,173.41-25.57,9.5-13.52-41.65h-83.67l-13.52,41.65Zm49-57.73h65.39l-29.65-83.62a3.06,3.06,0,0,0-5.76,0Z"/><path class="cls-1" d="M1742.61,490.71V614.49l16.63,38.29-22.43,9.28-24.76-36.36v-135h-53V463.63h135.38v27.08Z"/><path class="cls-1" d="M1511.73,465l84.33,134.57a3,3,0,0,0,5.45-1.57V464.4h30.94v193h-30.94l-76.16-112.79a2.77,2.77,0,0,0-5.07,1.55V657.42h-30.94V498.83l-3.12-24.93a7.4,7.4,0,0,1,5-7.94l12-4A7.32,7.32,0,0,1,1511.73,465Z"/><path class="cls-1" d="M1248.07,498.64v89.6a6.29,6.29,0,0,0,.48,2.42L1271,649.18a6.21,6.21,0,0,1-3.09,8l-12.68,5.53a5.59,5.59,0,0,1-7-2.19l-28.77-65.89a6.33,6.33,0,0,1-1-3.42l-1-92.61a5.93,5.93,0,0,0-5.76-6.08h-41.46a5.93,5.93,0,0,1-5.77-6.08V470.09a5.93,5.93,0,0,1,5.77-6.08h123.85a5.93,5.93,0,0,1,5.76,6.08v16.39a5.93,5.93,0,0,1-5.76,6.08h-40.3A5.93,5.93,0,0,0,1248.07,498.64Z"/><path class="cls-1" d="M302.14,669.13l-143.88-.63c-5.22,0-7.37-4.66-4.8-10.37L224.35,501c2.58-5.7,8.9-10.31,14.12-10.29l143.89.62c5.22,0,7.37,4.67,4.8,10.38l-70.9,157.18C313.69,664.54,307.37,669.15,302.14,669.13Z"/><path class="cls-2" d="M70.32,465l59.72,167s3,6.25,9.73,3.85a6.81,6.81,0,0,0,4.66-8.65S85.54,463.29,85,461.57s0-4.39,3.61-4.39c5,0,4.56-.05,8-.05l122.85.11s6.88-.8,6.88-7.49c0-7.6-6.88-7.54-6.88-7.54H92.12c-12.86,0-15.36,3.3-18.07,6.16C71.71,450.84,68,458.33,70.32,465Z"/><path class="cls-3" d="M205.77,398.88s34.72,51.56,64.76,65.13C321.67,487.11,385,478.5,385,478.5s6.81-.5,6.33-6.53-6.33-6-6.33-6S320.79,473,280.64,454.41c-39.07-18.1-65-62.17-65-62.17s-3.62-4.51-7.93-1.84C202.61,393.55,205.77,398.88,205.77,398.88Z"/></svg>