<svg xmlns="http://www.w3.org/2000/svg" xmlns:xlink="http://www.w3.org/1999/xlink" viewBox="0 0 510.84 962.65"><defs><style>.cls-1,.cls-14,.cls-3{fill:#fff;}.cls-2{fill:#f7931e;}.cls-3{font-size:33px;font-family:SourceHanSansJP-Bold-90ms-RKSJ-H, Source Han Sans JP;}.cls-4{fill:none;stroke:gray;stroke-width:5px;}.cls-14,.cls-4{stroke-miterlimit:10;}.cls-5{font-size:45.76px;}.cls-10,.cls-11,.cls-13,.cls-15,.cls-17,.cls-5,.cls-6,.cls-7{fill:#333;}.cls-11,.cls-15,.cls-5,.cls-6,.cls-7{font-family:SourceHanSans-Bold, SourceHanSans Bold-90ms-RKSJ-H;}.cls-11,.cls-13,.cls-15,.cls-17,.cls-5,.cls-6,.cls-7{font-weight:700;}.cls-6{font-size:30px;}.cls-7{font-size:19px;}.cls-8{font-family:SourceHanSans-Normal, SourceHanSans Normal-90ms-RKSJ-H;font-weight:400;}.cls-9{letter-spacing:-0.5em;}.cls-11{font-size:16.7px;}.cls-12{letter-spacing:0.25em;}.cls-13{font-size:93.11px;}.cls-13,.cls-17{font-family:KautivaPro-Bold, KautivaPro Bold;}.cls-14{stroke:#333;stroke-width:2px;}.cls-15{font-size:16.7px;}.cls-16{letter-spacing:0.25em;}.cls-17{font-size:64.43px;}</style></defs><g id="レイヤー_2" data-name="レイヤー 2"><g id="レイヤー_1-2" data-name="レイヤー 1"><rect class="cls-1" width="510.84" height="962.65" rx="43.98"/></g><g id="レイヤー_2-2" data-name="レイヤー 2"><rect class="cls-2" x="36.14" y="841.67" width="438.55" height="95.18" rx="19.28"/><text class="cls-3" transform="translate(189.58 900.7)">支援する</text><image width="1920" height="1080" transform="translate(36.14 103.48) scale(0.14)" xlink:href="../Downloads/SEMOTANT.png"/><line class="cls-4" x1="51.68" y1="125.16" x2="451.68" y2="125.16"/><text class="cls-5" transform="translate(59.35 85.19)">XXXX 円</text><text class="cls-6" transform="translate(45.93 494.43)">スタンダードコース</text><text class="cls-7" transform="translate(48.21 535.51)">内容物<tspan class="cls-8"><tspan x="-4.75" y="33.25">・SEMOTANT　×　1 台</tspan><tspan x="-4.75" y="66.5">・バッグ型カバー（紺</tspan><tspan class="cls-9" x="185.25" y="66.5">）</tspan><tspan x="194.75" y="66.5">　×　1 枚</tspan><tspan x="0" y="133">※デザイン・仕様は変更になる可能性も</tspan><tspan x="0" y="166.25">ございます。ご了承ください</tspan><tspan class="cls-9" x="247" y="166.25">。</tspan></tspan></text><text x="-30.5"/><circle class="cls-10" cx="89.36" cy="783.09" r="8.89"/><path class="cls-10" d="M102.3,815.1c0-10.82,7.87-19.59,17.56-19.59s17.56,8.77,17.56,19.59" transform="translate(-30.5)"/><text class="cls-11" transform="translate(130.71 782.79)">支援者数<tspan x="0" y="29.23">X</tspan><tspan class="cls-12" x="10.19" y="29.23">X</tspan><tspan x="24.55" y="29.23" xml:space="preserve">人        </tspan></text><text class="cls-13" transform="translate(360.33 429.14)">×1</text><rect class="cls-10" x="271.13" y="774.74" width="43.3" height="33.47" rx="5.21"/><path class="cls-14" d="M344.12,794a1.83,1.83,0,0,0-1.71-.71c-2.24.31-6.67,1.27-9.32,1.65-2,.28-2.92,3.28-.45,3.9,4.17,1,4.71,1.2-.28,1.38-2.7.1-4.67,1.25-3.73,5.11,1.05,4.34,2.86,5.91,7.39,5.36,4.9-.59,12.51-2.81,13.36-5.91C350.06,802.28,345.79,796.24,344.12,794Z" transform="translate(-30.5)"/><rect class="cls-1" x="289.47" y="773.16" width="6.63" height="10.37"/><text class="cls-15" transform="translate(337.32 782.79)">お届け予定<tspan x="0" y="29.22">XXX</tspan><tspan class="cls-16" x="30.56" y="29.22">X</tspan><tspan x="44.92" y="29.22">年 </tspan><tspan class="cls-16" x="65.51" y="29.22">X</tspan><tspan x="79.87" y="29.22" xml:space="preserve">月       </tspan></text><text class="cls-17" transform="translate(169.16 311.89)">+</text></g></g></svg>