<svg xmlns="http://www.w3.org/2000/svg" xmlns:xlink="http://www.w3.org/1999/xlink" viewBox="0 0 583.18 962.65"><defs><style>.cls-1,.cls-14,.cls-3{fill:#fff;}.cls-2{fill:#f7931e;}.cls-3{font-size:33px;font-family:SourceHanSansJP-Bold-90ms-RKSJ-H, Source Han Sans JP;}.cls-4{fill:none;stroke:gray;stroke-width:5px;}.cls-14,.cls-4{stroke-miterlimit:10;}.cls-5{font-size:45.76px;}.cls-10,.cls-11,.cls-13,.cls-15,.cls-17,.cls-5,.cls-6,.cls-7{fill:#333;}.cls-11,.cls-15,.cls-5,.cls-6,.cls-7{font-family:SourceHanSans-Bold-90ms-RKSJ-H, Source Han Sans;}.cls-6{font-size:30px;}.cls-7{font-size:19px;}.cls-8{font-family:SourceHanSans-Normal-90ms-RKSJ-H, Source Han Sans;}.cls-9{letter-spacing:-0.5em;}.cls-11{font-size:16.7px;}.cls-12{letter-spacing:0.25em;}.cls-13{font-size:93.11px;}.cls-13,.cls-17{font-family:KautivaPro-Bold, Kautiva Pro;font-weight:700;}.cls-14{stroke:#333;stroke-width:2px;}.cls-15{font-size:16.7px;}.cls-16{letter-spacing:0.25em;}.cls-17{font-size:64.43px;}</style></defs><g id="レイヤー_1" data-name="レイヤー 1"><rect class="cls-1" x="30.5" width="510.84" height="962.65" rx="43.98"/></g><g id="レイヤー_2" data-name="レイヤー 2"><rect class="cls-2" x="66.65" y="841.67" width="438.55" height="95.18" rx="19.28"/><text class="cls-3" transform="translate(220.09 900.7)">支援する</text><image width="1920" height="1080" transform="translate(66.65 103.48) scale(0.14)" xlink:href="SEMOTANT.png"/><line class="cls-4" x1="82.18" y1="125.16" x2="482.18" y2="125.16"/><text class="cls-5" transform="translate(89.86 85.19)">XXXX 円</text><image width="1944" height="1944" transform="translate(112.94 18.92) scale(0.24 0.24)" xlink:href="semotant-kirinuki.png"/><text class="cls-6" transform="translate(76.43 494.43)">スタンダードコース</text><text class="cls-7" transform="translate(78.71 535.51)">内容物<tspan class="cls-8"><tspan x="-4.75" y="33.25">・SEMOTANT　×　1 台</tspan><tspan x="-4.75" y="66.5">・バッグ型カバー（紺</tspan><tspan class="cls-9" x="185.25" y="66.5">）</tspan><tspan x="194.75" y="66.5">　×　1 枚</tspan><tspan x="0" y="133">※デザイン・仕様は変更になる可能性も</tspan><tspan x="0" y="166.25">ございます。ご了承ください</tspan><tspan class="cls-9" x="247" y="166.25">。</tspan></tspan></text><text x="-6907.55" y="-6718.67"/><circle class="cls-10" cx="119.86" cy="783.09" r="8.89"/><path class="cls-10" d="M7009.86,7533.77c0-10.82,7.86-19.59,17.56-19.59S7045,7523,7045,7533.77" transform="translate(-6907.55 -6718.67)"/><text class="cls-11" transform="translate(161.21 782.79)">支援者数<tspan x="0" y="29.23">X</tspan><tspan class="cls-12" x="10.47" y="29.23">X</tspan><tspan x="25.12" y="29.23" xml:space="preserve">人        </tspan></text><text class="cls-13" transform="translate(390.83 429.14)">×1</text><rect class="cls-10" x="301.64" y="774.74" width="43.3" height="33.47" rx="5.21"/><path class="cls-14" d="M7251.67,7512.68a1.81,1.81,0,0,0-1.71-.72c-2.24.32-6.67,1.27-9.32,1.65-2,.28-2.92,3.28-.45,3.9,4.17,1.05,4.72,1.2-.28,1.39-2.69.09-4.66,1.25-3.73,5.11,1,4.33,2.86,5.9,7.4,5.36,4.89-.59,12.51-2.82,13.35-5.92C7257.62,7521,7253.35,7514.92,7251.67,7512.68Z" transform="translate(-6907.55 -6718.67)"/><rect class="cls-1" x="319.97" y="773.16" width="6.63" height="10.37"/><text class="cls-15" transform="translate(367.82 782.79)">お届け予定<tspan x="0" y="29.22">XXX</tspan><tspan class="cls-16" x="31.41" y="29.22">X</tspan><tspan x="46.06" y="29.22">年 </tspan><tspan class="cls-16" x="66.55" y="29.22">X</tspan><tspan x="81.19" y="29.22" xml:space="preserve">月       </tspan></text><image width="4032" height="3024" transform="translate(0 200.07) scale(0.07)" xlink:href="semotant-bag.png"/><text class="cls-17" transform="translate(199.66 311.89)">+</text></g></svg>