<svg xmlns="http://www.w3.org/2000/svg" viewBox="0 0 865.93 502.2"><defs><style>.cls-1,.cls-10,.cls-3,.cls-4,.cls-5,.cls-7,.cls-8{fill:none;}.cls-1,.cls-10,.cls-2,.cls-27,.cls-28,.cls-3,.cls-4{stroke:#333;}.cls-1,.cls-10,.cls-2,.cls-27,.cls-28,.cls-3,.cls-4,.cls-5,.cls-6,.cls-7,.cls-8{stroke-miterlimit:10;}.cls-11,.cls-13,.cls-2,.cls-26,.cls-27,.cls-28{fill:#333;}.cls-28,.cls-3{stroke-width:0.25px;}.cls-4,.cls-5{opacity:0.5;}.cls-5{stroke:#000;}.cls-6,.cls-9{fill:#333c5e;}.cls-6,.cls-7,.cls-8{stroke:#333c5e;}.cls-7,.cls-8{stroke-width:10px;}.cls-8{stroke-dasharray:22.23 3.33;}.cls-10{stroke-dasharray:7.07 7.07;}.cls-11,.cls-13{font-size:15px;font-family:KozGoPr6N-Regular-90ms-RKSJ-H, Kozuka Gothic Pr6N;}.cls-11{letter-spacing:-0.04em;}.cls-12{letter-spacing:-0.61em;}.cls-14{letter-spacing:-0.04em;}.cls-15{letter-spacing:-0.61em;}.cls-16{font-size:50px;font-family:SourceHanSansJP-Bold-90ms-RKSJ-H, Source Han Sans JP;}.cls-16,.cls-25{fill:#fff;}.cls-17{letter-spacing:-0.06em;}.cls-18{letter-spacing:-0.11em;}.cls-19{letter-spacing:-0.13em;}.cls-20{letter-spacing:-0.06em;}.cls-21{letter-spacing:-0.07em;}.cls-22{letter-spacing:-0.06em;}.cls-23{letter-spacing:-0.04em;}.cls-24{letter-spacing:-0.05em;}.cls-27{stroke-width:0.5px;}</style></defs><g id="レイヤー_2" data-name="レイヤー 2"><g id="レイヤー_5" data-name="レイヤー 5"><polygon class="cls-1" points="444.67 449.46 444.78 454.41 446.77 457.06 615.91 456.38 616.13 449.35 444.67 449.46"/><polygon class="cls-1" points="623.42 441.07 631.3 422.84 632.5 421.73 723.24 260 733.47 245.53 623.42 441.07"/><polyline class="cls-1" points="615.91 456.38 617.51 455.86 619.13 454.45 620.46 452.47 621.72 450.73 622.49 450.04 623.72 450.01 625.09 449.98 630.18 451.58"/><polygon class="cls-1" points="621.08 445.24 621.11 446.61 630.18 451.58 632.27 451.54 633.98 450.44 746.25 250.64 745.75 247.91 737.13 243.42 734.33 244 621.08 445.24"/><path class="cls-1" d="M471.2,449.38c-7.77.07-16.48,0-26.1.07"/><path class="cls-1" d="M444.67,449.46c4.55-3.1,9-5.24,14.52-8.29,9.5-5.23,18.24-9.67,28.23-14.53a17.28,17.28,0,0,1,6-1.88c45.87-.81,91.4-.93,136.57-1.31-.84,2.19-5.13,10.73,0,0-3.83,8.89-8.78,16.15-12,24.89-.85.89-.12,1-1.85,1-43.32-.7-89.19.59-132.32,0"/><polygon class="cls-1" points="615.27 437.22 613.06 441.32 621.01 441.35 623.1 437.03 615.27 437.22"/><polygon class="cls-1" points="621.23 427.26 619.14 430.74 626.57 430.56 628.18 427.24 621.23 427.26"/><circle class="cls-1" cx="622.14" cy="441.1" r="1.3"/><circle class="cls-1" cx="626.9" cy="430.56" r="1.04"/><line class="cls-1" x1="617.98" y1="448.34" x2="617.51" y2="455.86"/><line class="cls-1" x1="630.01" y1="423.45" x2="631.3" y2="422.84"/><polygon class="cls-1" points="458.03 451.11 458.14 455.77 459.37 456.61 464.27 456.49 464.13 450.58 458.84 450.71 458.03 451.11"/><polygon class="cls-1" points="488.93 449.79 489.39 450.6 489.5 455.26 488.7 456.25 483.32 456.38 481.6 456.92 481.11 450.51 482.32 450.14 483.02 449.94 488.93 449.79"/><polygon class="cls-1" points="464.8 450.56 482.32 450.14 481.11 450.51 481.6 456.92 464.95 456.98 464.27 456.49 464.13 450.58 464.8 450.56"/><line class="cls-1" x1="464.59" y1="450.57" x2="464.73" y2="456.83"/><line class="cls-1" x1="483.02" y1="449.94" x2="483.32" y2="456.37"/><polygon class="cls-2" points="470.66 450.23 475.04 443.97 478.51 440.49 494.39 428.59 538.16 400.02 562.61 384.24 615.88 350.73 666.34 320.27 687.62 308.69 700.83 301.84 718.06 294.11 720.36 293.48 722.36 293.15 723.88 290.45 724.23 295.48 724.26 296.74 723.74 297.73 724.05 302.95 720.29 306 719.65 306.27 719.09 305.42 717.99 306.13 717.91 307.5 716 308.81 714.77 308.84 712.78 308.45 689.66 319.83 687.51 323.68 645.55 348.05 612.43 367.12 596.4 376.31 572.02 391.52 554.24 402.57 544.43 408.73 538.22 412.63 526.99 419.63 519.31 424.37 506.68 431.42 503.32 433.81 496.62 439.31 489.73 444.87 486.67 447.78 484.06 449.35 482.32 450.14 470.66 450.23"/><polygon class="cls-2" points="514.24 415.64 499.75 424.02 497.02 424.7 500.31 424.62 514.24 415.64"/><polygon class="cls-2" points="526.99 419.63 523.66 424.33 519.49 424.26 526.99 419.63"/><polygon class="cls-3" points="722.68 293.25 717.48 302.22 717.27 302.55 717.54 303.19 718.1 304.04 718.74 303.77 720.81 302.1 718.79 302.65 718.46 302.3 718.86 301.28 722.19 295.5 722.71 294.51 722.68 293.25"/><circle class="cls-1" cx="625.78" cy="445.93" r="1.21"/><circle class="cls-1" cx="632.37" cy="445.36" r="1.21"/><circle class="cls-1" cx="733.17" cy="253.82" r="1.21"/><circle class="cls-1" cx="740.16" cy="252.35" r="1.21"/><polyline class="cls-4" points="650.37 430.12 825.65 369.56 842.9 365.55"/><polyline class="cls-4" points="643.54 449.53 849.76 378.44 851.2 376.07 847.74 366.98 845.26 365.55 649.48 432.91"/><circle class="cls-5" cx="841.69" cy="372.17" r="1.21"/><circle class="cls-5" cx="847.97" cy="375.58" r="1.21"/></g><g id="レイヤー_6" data-name="レイヤー 6"><polygon class="cls-1" points="214.67 415.47 185.81 445.77 360.46 446.95 361.61 446.44 353.82 417.04 351.84 415.47 214.67 415.47"/><polygon class="cls-1" points="358.83 454.74 360.53 453.58 361.43 452.39 361.61 446.44 360.46 446.95 185.81 445.77 185.81 452.11 187.71 453.87 358.83 454.74"/><polygon class="cls-1" points="356.17 413.9 364.2 443.65 365.28 444.13 374.27 447.04 376 446.95 376.99 446.78 424.31 232.06 423.98 230.87 422.47 229.32 414.82 227.41 412.55 227.63 395.7 241.37 393.93 243.82 356.17 413.9"/><polyline class="cls-1" points="357.96 432.66 351.26 432.66 352.03 437.59 359.27 437.59"/><polyline class="cls-1" points="356.99 425.67 356.17 425.76 349.48 425.76 349.48 424.94 355.91 424.94 354.81 420.78 348.85 420.78 349.48 425.76"/><polyline class="cls-1" points="352.03 437.59 352.03 438.51 359.51 438.51"/><line class="cls-1" x1="351.26" y1="432.66" x2="352.03" y2="438.51"/><polygon class="cls-1" points="359.27 407.77 365.83 430.86 405.84 249.86 408.32 238.59 393.68 250.14 403.06 252.01 368.5 409.29 359.27 407.77"/><line class="cls-1" x1="368.5" y1="409.29" x2="369.69" y2="413.41"/><line class="cls-1" x1="359.27" y1="407.77" x2="393.68" y2="250.14"/><line class="cls-1" x1="401.06" y1="258.71" x2="403.84" y2="256.56"/><polygon class="cls-1" points="199.54 448.06 199.54 452.43 200.69 453.4 206.03 453.4 206.03 446.95 200.73 446.95 199.54 448.06"/><polygon class="cls-1" points="225.29 446.55 231.93 446.55 232.44 447.38 232.44 452.25 231.75 453.08 225.73 453.08 225.58 453.62 224.32 453.76 224.32 447.2 225.29 446.55"/><polyline class="cls-1" points="206.03 453.4 206.9 453.4 206.9 447.27 206.03 446.95"/><polygon class="cls-1" points="206.9 447.27 224.32 447.2 224.32 453.76 223.02 454.05 206.9 453.97 206.9 453.4 206.9 447.27"/><polygon class="cls-2" points="215.84 447.2 215.84 445.97 216.17 445.97 217.47 442.98 222.52 436.92 226.63 432.59 234.93 424.69 253.07 407.7 258.41 403.15 276.19 389.38 289.18 379.53 305.34 368.6 318.61 358.57 327.09 351.64 333.01 345.55 345.42 333.68 361.54 319.58 376.83 305.69 395.19 289.89 397.39 288.08 406.77 280.37 409.12 278.45 414.74 275.49 414.99 274.32 415.32 275.21 415.32 278.38 415.68 277.59 415.94 276.65 416.51 273.66 417.16 273.87 416.98 276.07 415.97 280.22 415.94 282.78 415.11 285.2 414.42 285.56 413.7 286.82 413.7 288.16 412.4 289.17 404.75 294.36 395.34 301.58 391.08 304.39 381.24 311.6 377.52 314.13 373.26 317.38 368.65 321.02 363.67 324.95 358.11 329.24 351.66 334.33 347.25 337.87 341.3 342.3 335.5 346.09 330.77 349.84 327.2 352.58 325.04 354.02 321.43 356.98 317.93 360.05 314.29 363.33 309.96 367.81 306.64 371.09 299.5 378.34 292.93 384.9 285.68 391.72 276.99 400.05 265.33 410.69 256.28 419.35 247.05 428.26 242.57 432.37 238.61 436.02 237.49 436.95 236.19 437.93 234.13 439.01 232.73 439.73 231.43 440.35 230.6 441.14 229.73 441.97 227.13 445.54 226.63 446.04 226.38 446.55 225.29 446.55 224.32 447.2 215.84 447.2"/><polygon class="cls-2" points="236.5 415.47 238.95 408.11 241.5 403.93 244.05 401.18 247.56 398.63 250.79 396.71 258.63 390.99 266.42 385.79 270.26 383.92 280.7 375.31 292.15 366.84 304.61 355.59 317.06 345.15 327.36 337.23 339.43 326.68 357.94 310.81 366.46 303.84 370.74 299.89 375.12 295.52 384.79 285 381.67 299.07 368.96 309.42 363.86 314.23 357.75 319.95 344.43 331.64 336.2 339.72 327.6 346.93 320.43 352.8 311.29 360.93 305.05 366.36 300.37 370.4 296 374.01 261.27 394.31 260.65 394.21 257.95 395.94 255.79 397.1 253.48 397.77 251.22 399.69 250.06 402 249.68 403.2 248.91 404.36 248.43 405.03 248.09 405.99 248 407.15 239.96 415.47 236.5 415.47"/><polygon class="cls-2" points="244.78 415.47 239.96 415.47 248 407.15 261.5 394.17 296 374.01 295.56 375.21 289.18 379.53 280.4 386.18 269.27 394.74 261.89 400.46 258.41 403.15 253.43 407.39 249.96 410.61 244.78 415.47"/><polygon class="cls-2" points="393.68 286.71 393.54 286.1 393.86 285.85 396.42 278.24 397.83 278.85 399.06 278.42 399.06 279.14 397 288.01 394.94 288.96 394.91 287.04 393.68 286.71"/><polyline class="cls-1" points="418.53 255.89 418.53 258.06 419.53 258.35 419.53 260.28 419.24 262.54 418.53 265.9 415.16 280.57"/><polyline class="cls-1" points="419.53 259.47 420.14 262.25 413.94 289.23"/><line class="cls-1" x1="412.55" y1="227.63" x2="365.28" y2="444.13"/><polygon class="cls-1" points="358.4 412.89 357.35 418.3 358.83 423.27 360.1 416.94 358.4 412.89"/><polygon class="cls-1" points="361.79 423.72 360.59 430.29 362.02 435.58 363.67 429.27 361.79 423.72"/><circle class="cls-1" cx="357.23" cy="424.48" r="1.21"/><path class="cls-1" d="M362.42,437.63a1.5,1.5,0,0,1-1.49,1.49,1.49,1.49,0,1,1,1.49-1.49Z"/><path class="cls-1" d="M359.63,439l.7,0"/><line class="cls-1" x1="362.78" y1="438.4" x2="361.85" y2="438.8"/><path class="cls-1" d="M357.89,432.3a1.63,1.63,0,0,1,3.11-.49"/><path class="cls-1" d="M354.68,420.31a1.63,1.63,0,0,1,3.11-.5"/><line class="cls-1" x1="358.86" y1="423.89" x2="358.44" y2="424.61"/><circle class="cls-1" cx="368.87" cy="442.21" r="1.21"/><circle class="cls-1" cx="374.78" cy="439.78" r="1.21"/><circle class="cls-1" cx="413.51" cy="241.4" r="1.21"/><circle class="cls-1" cx="419.14" cy="238.48" r="1.21"/><circle class="cls-1" cx="203.13" cy="449.97" r="1.56"/><circle class="cls-1" cx="229.04" cy="450.18" r="1.56"/><circle class="cls-1" cx="461.15" cy="453.61" r="1.56"/><circle class="cls-1" cx="486.61" cy="453.42" r="1.56"/></g><g id="レイヤー_8" data-name="レイヤー 8"><path class="cls-6" d="M47,51.06H613.27S664,50.86,664,108.17c0,54.62-50.74,57.11-50.74,57.11H47S2,171.9.53,108.17,47,51.06,47,51.06Z"/><path class="cls-7" d="M766.33,239.77q4.88,1.5,9.46,3.25"/><path class="cls-8" d="M778.89,244.24c34,13.85,56,38.18,66.24,71.07"/><path class="cls-7" d="M845.61,316.91q1.41,4.72,2.5,9.69"/><path class="cls-9" d="M851.2,347.5c-5.19-9.24-13.33-20.45-21.1-27l17.38,3.36,15.5-8.54C857.59,324,853.29,337.11,851.2,347.5Z"/><line class="cls-1" x1="151.3" y1="474.04" x2="154.8" y2="474.04"/><line class="cls-10" x1="161.87" y1="474.04" x2="837.05" y2="474.04"/><line class="cls-1" x1="840.58" y1="474.04" x2="844.08" y2="474.04"/></g><g id="文字"><text class="cls-11" transform="translate(142.81 496.94)">0<tspan class="cls-12" x="7.67" y="0">°</tspan></text><text class="cls-13" transform="translate(835.88 497.12)">18<tspan class="cls-14" x="16.53" y="0">0</tspan><tspan class="cls-15" x="24.2" y="0">°</tspan></text><text class="cls-16" transform="translate(141.52 134.62)">無段<tspan class="cls-17" x="100" y="0">階</tspan><tspan class="cls-18" x="147.05" y="0">リ</tspan><tspan class="cls-19" x="191.55" y="0">ク</tspan><tspan class="cls-20" x="234.8" y="0">ラ</tspan><tspan class="cls-21" x="282.05" y="0">イ</tspan><tspan class="cls-22" x="328.3" y="0">ニ</tspan><tspan class="cls-23" x="375.1" y="0">ン</tspan><tspan class="cls-24" x="422.85" y="0">グ</tspan></text><circle class="cls-25" cx="166.82" cy="74.32" r="4.57"/><circle class="cls-25" cx="219.71" cy="74.32" r="4.57"/><circle class="cls-25" cx="274.65" cy="74.32" r="4.57"/><path class="cls-26" d="M147.58,26.54c1.45,1.83,5.19,3.18,7.06,3.18,4.22,0,4.92-1.92,4.92-3.88V25a2.62,2.62,0,0,0-2.06-2.39L152,21.3c-5.71-1.31-5.71-5.52-5.71-5.52v-1c0-5.76,4.63-6.09,6.08-6.09a22.82,22.82,0,0,1,9.71,2,.59.59,0,0,1,.28.8l-1.14,2.29a18.1,18.1,0,0,0-7.73-1.88c-2.85,0-3.46,1.17-3.46,2.91v1c0,1.6,2.06,2,2.06,2l5.52,1.26c5.67,1.31,5.71,5.85,5.71,5.8v.94c0,4.07-2.2,7.16-8.66,7.16a12.58,12.58,0,0,1-8.27-3.43.51.51,0,0,1-.08-.59Z"/><path class="cls-26" d="M234.27,22a2.57,2.57,0,0,1,2,.62,1.34,1.34,0,0,1,0,1.9c-.27.35-4.73,4.43-4.73,4.43a.13.13,0,0,1-.21-.15,4.38,4.38,0,0,0,.48-1.7,11.78,11.78,0,0,0,.07-1.74c0-.24,0-2.91,0-3v-.17c0-.12.06-.21.23-.21Z"/><path class="cls-26" d="M231,26.69s0,5.95-8.89,5.95-8.89-5-8.89-5.95V14.2c0-4.39.38-5.95,8.89-5.95C231,8.25,231,9.81,231,14.2Zm-3.74-11.6c0-3.16-.33-3.56-5.15-3.56s-5.14.54-5.14,3.56V26c0,1,.42,3.37,5.14,3.37S227.3,27,227.3,26Z"/><text/><text/><path class="cls-26" d="M189.3,9.25l8.37,13.36L206,9.31a.91.91,0,0,1,1.06-.37l1.4.47a.91.91,0,0,1,.63,1l-.37,3V32.58H205V18l-7.3,10.49L190.37,18V32.58h-3.75V13.39l-.38-3.09a.8.8,0,0,1,.54-.86l1.58-.53A.8.8,0,0,1,189.3,9.25Z"/><path class="cls-26" d="M167.07,9.13h15.44V12.5H171.37a.56.56,0,0,0-.56.56v5.06H179v3.27h-7.64a.51.51,0,0,0-.51.52v7.44h11.7v3.23H167.07Z"/><path class="cls-26" d="M251.85,31.26l7.47-21a.92.92,0,0,1,.87-.61h3.1a.94.94,0,0,1,.89.63l7.34,21-3.09,1.15-1.64-5H256.67l-1.64,5Zm5.92-7h7.91L262.1,14.16a.37.37,0,0,0-.7,0Z"/><path class="cls-26" d="M305,12.36v15L307,32l-2.71,1.12-3-4.4V12.36h-6.41V9.09h16.38v3.27Z"/><path class="cls-26" d="M277,9.25l10.21,16.29a.36.36,0,0,0,.66-.19V9.18h3.74V32.53H287.9l-9.22-13.64a.33.33,0,0,0-.61.18V32.53h-3.74V13.34l-.38-3a.9.9,0,0,1,.6-1L276,8.88A.89.89,0,0,1,277,9.25Z"/><path class="cls-26" d="M245.14,13.32V24.16a.93.93,0,0,0,.05.29l2.72,7.09a.75.75,0,0,1-.37,1l-1.53.67a.69.69,0,0,1-.85-.27l-3.48-8a.75.75,0,0,1-.12-.41l-.12-11.21a.72.72,0,0,0-.7-.73h-5a.72.72,0,0,1-.7-.74v-2a.72.72,0,0,1,.7-.74h15a.72.72,0,0,1,.7.74v2a.72.72,0,0,1-.7.74h-4.88A.71.71,0,0,0,245.14,13.32Z"/><path class="cls-26" d="M130.7,34l-17.41-.08c-.63,0-.89-.56-.58-1.25l8.58-19a2.09,2.09,0,0,1,1.7-1.24l17.41.07c.63,0,.89.57.58,1.26l-8.58,19A2.13,2.13,0,0,1,130.7,34Z"/><path class="cls-27" d="M102.65,9.25l7.22,20.2a.94.94,0,0,0,1.18.46.82.82,0,0,0,.57-1l-7.2-20c-.07-.21,0-.53.44-.53h15.83a.92.92,0,0,0,.83-.9.84.84,0,0,0-.83-.92h-15.4c-1.56,0-1.86.4-2.19.75A2.22,2.22,0,0,0,102.65,9.25Z"/><path class="cls-28" d="M119,1.25s4.2,6.24,7.83,7.88c6.19,2.8,13.85,1.76,13.85,1.76s.83-.06.77-.79a.77.77,0,0,0-.77-.73S133,10.22,128.09,8,120.23.45,120.23.45s-.44-.55-1-.22A.73.73,0,0,0,119,1.25Z"/></g></g></svg>