<svg xmlns="http://www.w3.org/2000/svg" xmlns:xlink="http://www.w3.org/1999/xlink" viewBox="0 0 2179.74 1226.11"><defs><style>.cls-1{fill:none;stroke:#231815;stroke-miterlimit:10;stroke-width:5px;}.cls-2{fill:#231815;}.cls-3{fill:#fff;}.cls-4{font-size:50.31px;}.cls-10,.cls-4,.cls-7{fill:#333;font-family:SourceHanSans-Bold-90ms-RKSJ-H, Source Han Sans;}.cls-5{font-size:100.62px;}.cls-6{font-size:51.84px;}.cls-7{font-size:38.6px;}.cls-8{font-size:77.21px;}.cls-9{font-size:39.78px;}.cls-10{font-size:40.74px;}.cls-11{font-size:81.49px;}.cls-12{font-size:41.98px;}</style></defs><g id="レイヤー_3" data-name="レイヤー 3"><image width="1920" height="1080" transform="matrix(-1.14, 0, 0, 1.14, 2179.74, 0)" xlink:href="%E6%A4%85%E5%AD%904.jpg"/></g><g id="レイヤー_2" data-name="レイヤー 2"><line class="cls-1" x1="1066.82" y1="1034.83" x2="1354.14" y2="887.2"/><path class="cls-2" d="M862.55,903.8a7.52,7.52,0,1,1,3.25-10.12A7.53,7.53,0,0,1,862.55,903.8Z" transform="translate(208.05 137.54)"/><path class="cls-2" d="M1149.19,756.52a7.52,7.52,0,1,0-10.12-3.25A7.53,7.53,0,0,0,1149.19,756.52Z" transform="translate(208.05 137.54)"/><line class="cls-1" x1="1415.83" y1="837.54" x2="1532.41" y2="339.37"/><path class="cls-2" d="M1215.19,701.34a7.52,7.52,0,1,1-5.61-9A7.52,7.52,0,0,1,1215.19,701.34Z" transform="translate(208.05 137.54)"/><path class="cls-2" d="M1331.6,203.91a7.52,7.52,0,1,0-9,5.61A7.51,7.51,0,0,0,1331.6,203.91Z" transform="translate(208.05 137.54)"/><line class="cls-1" x1="697.76" y1="871.27" x2="976.98" y2="1029.27"/><path class="cls-2" d="M486.33,740.46a7.52,7.52,0,1,1,10.25-2.84A7.53,7.53,0,0,1,486.33,740.46Z" transform="translate(208.05 137.54)"/><path class="cls-2" d="M764.9,898.09a7.52,7.52,0,1,0-2.84-10.25A7.53,7.53,0,0,0,764.9,898.09Z" transform="translate(208.05 137.54)"/><path class="cls-3" d="M1572.62,125.28c85.82,5.44,150.92,80.21,145.41,167a158.1,158.1,0,0,1-21.77,70.86c-29,49-83.4,80.25-143.57,76.44-74.28-4.71-133-61.36-143.93-132.79a4.16,4.16,0,0,0-1.18-2.14c-10-11-48.64-24.59-47.94-35.53.57-9,25.61-15.92,45.72-23.3,4-1.48,6.63-3,7.08-4.72C1431.47,170.41,1497.54,120.52,1572.62,125.28Z" transform="translate(208.05 137.54)"/><text class="cls-4" transform="translate(1745.8 368.47) scale(1.02 1)">約<tspan class="cls-5"><tspan x="-34.11" y="91.26">50</tspan></tspan><tspan class="cls-6"><tspan x="-13.49" y="153.58">cm</tspan></tspan></text><text x="208.05" y="137.54"/><path class="cls-3" d="M1335.48,751.12a119.35,119.35,0,0,1,71.23,154.48,122,122,0,0,1-32,47.46c-32.51,29.76-80,41-124,25.16a119.21,119.21,0,0,1-77.73-129,3.25,3.25,0,0,0-.41-1.83c-5-10.27-30.78-28.64-27.83-36.55,2.44-6.53,22.63-6.17,39.25-7.25,3.33-.21,5.62-.8,6.33-1.94C1220.27,753.75,1280.59,731.33,1335.48,751.12Z" transform="translate(208.05 137.54)"/><text class="cls-7" transform="translate(1481.79 962.05) scale(1.04 1)">約<tspan class="cls-8"><tspan x="-26.17" y="70.03">40</tspan></tspan><tspan class="cls-9"><tspan x="-10.35" y="117.86">cm</tspan></tspan></text><text x="208.05" y="137.54"/><path class="cls-3" d="M294.63,932.65c-69.4,5.8-130.42-46.4-136.28-116.59a128.14,128.14,0,0,1,9.05-59.35c17.45-42.67,57.32-74.17,106-78.24,60.07-5,113.85,33.41,131,89.35a3.39,3.39,0,0,0,1.2,1.58c9.34,7.61,41.88,13.93,42.62,22.78.61,7.31-18.64,15.79-33.88,24.09-3.05,1.66-4.95,3.21-5.11,4.62C402.37,879.78,355.35,927.58,294.63,932.65Z" transform="translate(208.05 137.54)"/><text class="cls-10" transform="translate(472.49 897.22) scale(1.02 1)">約<tspan class="cls-11"><tspan x="-27.62" y="73.91">40</tspan></tspan><tspan class="cls-12"><tspan x="-10.93" y="124.39">cm</tspan></tspan></text><text x="208.05" y="137.54"/></g></svg>